<svg width="1050" height="1051" viewBox="0 0 1050 1051" fill="none" xmlns="http://www.w3.org/2000/svg">
<path d="M199.483 855.829C193.893 862.209 188.303 868.579 181.943 875.849C183.283 879.449 184.143 885.069 181.193 890.639C179.263 894.279 176.633 897.189 172.933 899.049C166.363 902.349 157.643 900.579 152.483 894.919C146.423 888.269 146.753 879.539 150.843 872.669C155.193 865.359 163.293 863.549 174.473 867.049C181.423 860.049 188.493 852.939 196.343 845.029C193.733 844.889 192.353 844.789 190.983 844.739C184.273 844.469 177.553 844.229 170.843 843.939C169.573 843.889 168.293 843.799 167.053 843.529C163.423 842.729 161.313 840.619 161.283 837.939C161.253 835.229 163.243 833.049 166.923 832.259C169.033 831.809 171.243 831.679 173.413 831.709C183.583 831.839 193.753 831.939 203.913 832.339C207.273 832.469 209.733 831.609 212.103 829.169C220.203 820.829 228.503 812.699 236.723 804.469C237.473 803.719 238.143 802.899 239.503 801.399C234.023 800.629 229.253 800.179 224.583 799.249C210.003 796.349 195.443 793.329 180.903 790.199C178.473 789.679 176.083 788.579 173.913 787.319C171.933 786.169 170.823 784.179 171.583 781.739C172.313 779.379 174.123 778.069 176.513 778.199C181.943 778.499 187.413 778.699 192.773 779.569C209.433 782.289 226.043 785.279 242.663 788.229C245.323 788.699 247.923 789.539 250.143 790.099C262.083 778.059 273.823 766.239 285.873 754.079C282.823 753.129 279.463 751.939 276.033 751.029C253.033 744.879 229.643 740.689 206.163 736.859C201.733 736.139 197.443 734.549 193.133 733.229C191.953 732.869 190.853 732.099 189.853 731.329C188.093 729.979 186.113 728.149 187.133 725.949C187.923 724.239 190.013 722.349 191.793 722.019C195.843 721.289 200.143 720.809 204.183 721.389C231.863 725.349 259.403 730.089 286.313 737.909C288.533 738.549 290.823 738.949 293.723 739.609C293.923 737.219 294.063 735.309 294.253 733.399C295.283 722.74 296.083 712.059 297.433 701.439C298.303 694.569 300.063 693.309 306.723 692.089C323.323 689.039 339.893 685.839 356.503 682.869C359.133 682.399 360.623 680.769 362.253 679.109C381.623 659.429 400.953 639.729 420.343 620.069C433.993 606.229 447.713 592.469 461.403 578.669C465.413 574.629 465.473 574.299 462.423 569.479C461.553 568.099 460.513 566.829 459.563 565.499C459.043 564.759 458.543 563.999 458.023 563.229C455.953 563.979 454.423 564.459 452.963 565.089C442.113 569.709 431.303 574.449 420.403 578.959C416.903 580.409 414.183 582.389 412.213 585.679C403.193 600.799 394.043 615.839 384.943 630.909C383.913 632.609 383.033 634.459 381.753 635.949C378.973 639.189 374.743 639.829 371.443 637.749C368.313 635.779 367.033 632.019 368.343 628.189C368.803 626.829 369.583 625.569 370.303 624.319C375.863 614.739 381.443 605.179 387.003 595.599C387.323 595.049 387.483 594.399 388.023 593.029C385.843 593.849 384.363 594.359 382.923 594.969C372.063 599.569 361.243 604.269 350.333 608.759C347.283 610.009 345.313 611.74 344.063 614.919C339.213 627.24 334.063 639.439 329.003 651.679C328.593 652.679 328.163 653.709 327.553 654.589C325.533 657.519 321.923 658.559 318.923 657.179C316.173 655.909 314.563 652.729 315.263 649.419C315.593 647.839 316.293 646.329 316.953 644.839C319.973 638.039 323.043 631.259 326.073 624.459C326.803 622.829 327.453 621.169 328.453 618.759C326.633 619.269 325.463 619.469 324.403 619.909C316.023 623.399 307.693 626.989 299.293 630.429C296.803 631.449 295.193 632.929 294.023 635.469C290.003 644.209 285.723 652.819 281.453 661.439C280.663 663.039 279.663 664.639 278.413 665.879C276.243 668.029 273.253 668.38 270.873 667.169C268.373 665.889 266.703 662.819 267.453 659.809C268.003 657.559 269.113 655.419 270.223 653.359C272.363 649.389 274.673 645.509 276.803 641.779C276.483 641.249 276.423 641.079 276.303 640.979C276.183 640.869 275.963 640.739 275.843 640.779C274.303 641.309 272.753 641.799 271.253 642.439C256.563 648.659 241.883 654.899 227.133 661.159C225.523 677.5 217.253 687.409 203.953 688.789C192.353 689.989 181.003 682.549 177.373 671.359C173.483 659.359 178.443 647.269 189.903 640.789C201.413 634.279 212.833 637.179 223.593 649.519C239.623 642.589 255.723 635.619 272.713 628.279C270.863 627.319 269.753 626.649 268.563 626.149C263.713 624.119 258.773 622.289 254.013 620.069C251.923 619.099 250.053 617.509 248.353 615.909C246.823 614.459 246.313 612.5 247.303 610.409C248.303 608.31 250.193 607.589 252.263 607.779C254.223 607.959 256.203 608.479 258.063 609.149C267.283 612.449 276.523 615.729 285.653 619.289C288.573 620.429 291.043 620.579 293.943 619.269C303.703 614.869 313.573 610.7 323.383 606.419C324.343 606 325.253 605.439 326.903 604.569C322.073 602.279 317.873 600.279 313.673 598.299C307.933 595.589 302.093 593.059 296.473 590.109C293.303 588.449 290.343 586.269 287.563 583.989C286.003 582.709 285.173 580.699 286.543 578.619C287.863 576.639 289.803 576.459 291.853 577.129C297.543 578.999 303.273 580.749 308.863 582.889C319.713 587.039 330.493 591.359 341.243 595.739C343.553 596.679 345.553 597.019 347.953 595.969C362.573 589.549 377.263 583.259 391.913 576.909C392.693 576.569 393.393 576.069 394.883 575.209C392.693 574.469 391.273 573.919 389.803 573.509C377.563 570.119 365.313 566.789 353.073 563.379C350.103 562.549 347.183 561.539 344.293 560.479C342.773 559.919 341.303 559.159 339.903 558.319C337.593 556.939 335.893 555.099 336.553 552.109C337.073 549.759 339.083 548.519 342.523 548.439C343.973 548.409 345.433 548.519 346.863 548.709C367.463 551.399 387.533 556.399 406.973 563.619C413.183 565.929 418.453 566.239 424.443 563.059C431.153 559.499 438.343 556.819 445.423 553.989C448.753 552.659 450.273 550.409 450.453 546.999C450.773 541.059 449.753 535.459 446.503 530.299C445.293 530.179 444.223 529.989 443.153 529.979C394.653 529.629 346.163 529.319 297.663 528.929C294.463 528.899 291.713 529.529 288.993 531.329C276.563 539.519 263.973 547.459 251.543 555.639C243.373 561.029 239.843 558.939 235.093 554.609C226.263 546.539 217.113 538.819 207.603 530.519C206.123 531.639 204.323 532.769 202.803 534.189C183.453 552.339 164.543 570.919 147.123 590.969C143.793 594.809 140.253 598.479 136.663 602.069C135.143 603.589 133.333 604.889 131.463 605.969C129.443 607.129 127.253 607.169 125.433 605.399C123.773 603.779 123.763 601.679 124.693 599.839C125.993 597.259 127.423 594.659 129.253 592.449C137.933 581.959 146.463 571.319 155.643 561.279C164.333 551.769 173.773 542.949 182.883 533.809C184.123 532.559 185.333 531.279 187.173 529.359C185.163 529.179 183.993 528.989 182.833 528.989C169.573 528.969 156.313 529.039 143.053 528.949C140.343 528.929 138.173 529.259 136.653 531.899C135.883 533.239 134.343 534.169 133.063 535.179C121.783 544.059 110.733 553.199 100.723 563.539C97.8227 566.539 94.7027 569.329 91.5127 572.029C85.9927 576.699 82.8728 577.589 80.5828 575.449C78.2028 573.209 79.2227 569.809 84.2627 564.209C87.0527 561.109 89.9728 558.099 93.0828 555.319C101.203 548.059 109.463 540.949 117.663 533.769C119.003 532.589 120.313 531.379 122.233 529.649C120.323 529.389 119.163 529.109 118.013 529.099C107.843 529.069 97.6727 529.129 87.4927 529.059C83.9027 529.039 80.9328 529.879 78.0928 532.399C70.4828 539.139 62.5827 545.549 54.7427 552.019C53.3627 553.159 51.8228 554.459 50.1628 554.839C48.6228 555.189 46.5327 554.859 45.2227 554.009C43.5627 552.929 43.6128 550.819 44.6028 549.079C45.4028 547.669 46.2828 546.249 47.3828 545.069C51.2128 540.949 55.1527 536.929 59.0427 532.859C59.9727 531.879 60.8428 530.849 62.3528 529.169H35.4727C29.4927 539.489 22.2529 543.349 13.1829 540.969C5.52287 538.959 0.132801 532.159 0.362801 524.069C0.592801 515.679 4.72265 509.759 14.2026 506.609C22.4926 503.849 29.4026 508.049 35.6926 518.859C45.6226 518.859 55.5428 518.859 66.3528 518.859C65.0028 517.229 64.2027 516.149 63.2927 515.179C58.7127 510.259 54.0227 505.449 49.5527 500.429C48.0227 498.709 46.5127 496.629 45.9627 494.469C45.5527 492.849 46.1227 490.219 47.2827 489.149C48.4427 488.079 51.1829 487.649 52.6729 488.269C55.2629 489.349 57.7027 491.179 59.7127 493.189C66.7627 500.259 73.7327 507.429 80.4627 514.799C83.1227 517.709 85.8328 519.039 89.8728 518.959C102.203 518.699 114.533 518.859 128.033 518.859C126.573 516.779 125.673 515.359 124.643 514.049C113.573 500.069 103.553 485.389 94.8027 469.839C93.7327 467.949 92.6726 466.009 91.9526 463.969C90.8026 460.709 91.6529 458.069 93.9329 456.749C96.0729 455.509 98.3427 455.909 100.773 458.349C102.813 460.399 104.793 462.579 106.463 464.939C118.493 481.999 130.483 499.089 142.363 516.259C143.503 517.899 144.413 518.959 146.553 518.949C161.813 518.879 177.063 518.929 192.323 518.909C192.793 518.909 193.273 518.619 194.303 518.289C192.963 515.559 191.943 512.849 190.413 510.489C178.753 492.519 167.033 474.599 155.253 456.709C152.763 452.919 149.673 449.499 147.403 445.589C145.413 442.189 143.953 438.429 142.703 434.669C141.963 432.449 142.013 429.849 144.273 428.209C146.573 426.549 149.013 427.489 150.843 428.939C154.083 431.519 157.523 434.119 159.963 437.399C176.313 459.419 192.203 481.779 205.503 505.839C206.813 508.209 208.253 510.519 209.953 513.409C211.673 511.969 213.133 510.729 214.613 509.509C222.713 502.789 230.673 495.879 238.973 489.409C245.133 484.609 247.173 484.939 253.543 489.339C267.273 498.839 281.023 508.339 294.893 517.639C296.513 518.729 298.983 518.919 301.053 518.919C323.393 518.849 345.733 518.639 368.073 518.489C392.413 518.319 416.753 518.169 441.093 518.019C443.253 518.009 445.403 518.019 448.243 518.019C449.183 513.369 450.063 509.049 450.983 504.509C443.933 501.679 437.553 499.119 431.183 496.559C424.783 493.989 418.373 491.449 412.003 488.809C409.413 487.729 406.953 487.499 404.093 487.999C386.363 491.129 369.053 495.919 351.773 500.849C349.853 501.399 347.943 502.089 345.983 502.319C341.883 502.799 338.203 500.299 337.133 496.599C336.063 492.929 337.933 489.049 341.783 487.209C342.913 486.669 344.173 486.369 345.393 486.049C356.263 483.169 367.153 480.299 378.023 477.419C378.503 477.289 378.943 476.989 380.043 476.449C378.633 475.649 377.693 474.969 376.653 474.549C365.043 469.849 353.403 465.249 341.823 460.479C339.303 459.439 337.133 459.329 334.573 460.429C322.233 465.709 309.823 470.819 297.433 475.969C296.263 476.459 295.073 476.979 293.843 477.199C290.833 477.749 287.903 476.249 286.533 473.619C285.143 470.959 285.573 467.829 288.063 465.709C289.543 464.449 291.403 463.539 293.233 462.829C300.323 460.039 307.473 457.399 314.593 454.679C316.253 454.049 317.873 453.329 320.383 452.289C318.453 451.349 317.293 450.709 316.083 450.219C308.023 446.929 299.903 443.749 291.893 440.339C289.063 439.139 286.593 438.899 283.583 440.029C274.753 443.339 265.793 446.309 256.853 449.299C255.003 449.919 252.973 450.289 251.033 450.269C248.263 450.239 246.173 448.709 245.263 446.049C244.363 443.419 244.903 440.809 247.103 439.129C248.923 437.749 251.133 436.729 253.333 436.029C258.133 434.509 263.033 433.289 267.963 430.859C251.613 424.189 235.263 417.519 218.443 410.659C212.983 416.259 206.023 419.849 197.573 419.469C191.623 419.199 186.223 417.199 181.723 413.099C173.053 405.209 170.833 392.489 176.373 382.229C182.293 371.249 194.013 366.499 206.603 369.979C219.113 373.439 225.153 383.559 224.333 400.039C240.563 406.479 256.883 412.959 274.123 419.799C273.333 417.609 272.873 416.169 272.303 414.769C270.323 409.899 268.123 405.109 266.393 400.149C265.643 397.999 265.363 395.449 265.713 393.209C265.943 391.729 267.423 389.779 268.773 389.329C270.153 388.869 272.493 389.509 273.613 390.549C275.283 392.089 276.463 394.289 277.463 396.399C281.593 405.089 285.723 413.789 289.513 422.619C290.773 425.549 292.483 427.279 295.413 428.399C306.253 432.539 317.023 436.859 328.483 441.379C328.153 439.659 328.083 438.499 327.713 437.439C324.553 428.549 321.173 419.729 318.203 410.769C316.963 407.029 316.373 403.039 315.833 399.119C315.553 397.069 316.373 395.039 318.733 394.469C321.003 393.919 322.623 395.119 323.593 397.069C326.973 403.899 330.433 410.699 333.573 417.639C337.683 426.739 341.573 435.939 345.413 445.149C346.373 447.449 347.553 449.119 350.003 450.079C365.053 455.949 380.043 461.949 395.063 467.889C395.693 468.139 396.363 468.259 397.773 468.649C396.923 466.799 396.443 465.539 395.783 464.369C389.633 453.459 383.403 442.589 377.313 431.649C375.283 428.009 373.473 424.239 371.763 420.439C371.103 418.989 370.813 417.309 370.653 415.699C370.443 413.549 371.193 411.429 373.343 410.889C374.883 410.499 377.083 410.699 378.333 411.579C380.353 413.009 381.983 415.099 383.523 417.099C395.663 432.839 405.843 449.829 414.093 467.859C417.183 474.619 421.033 479.099 428.293 481.259C435.043 483.269 441.583 486.169 447.983 489.159C452.243 491.149 455.533 490.049 458.233 486.989C460.723 484.159 462.933 480.979 464.703 477.649C466.803 473.699 466.543 473.409 463.313 470.139C447.223 453.859 431.103 437.619 415.023 421.329C397.293 403.359 379.583 385.359 361.913 367.319C359.563 364.919 357.083 363.309 353.643 362.619C339.063 359.679 324.563 356.359 309.993 353.319C302.333 351.729 300.023 349.149 299.573 341.219C298.923 329.619 298.203 318.019 297.483 306.429C297.453 305.919 297.173 305.419 296.863 304.459C295.043 304.249 293.123 303.889 291.183 303.809C263.573 302.679 235.983 302.779 208.413 304.739C204.613 305.009 200.793 305.099 196.983 305.109C195.183 305.109 193.353 304.889 191.583 304.529C187.843 303.759 186.023 302.089 186.043 299.539C186.073 296.409 188.293 295.189 190.853 294.439C192.593 293.929 194.373 293.539 196.153 293.249C213.223 290.509 230.443 289.499 247.713 289.289C257.883 289.159 268.053 289.379 278.223 289.429C279.623 289.429 281.023 289.429 283.423 289.429C282.173 287.929 281.593 287.119 280.893 286.419C271.393 276.909 261.833 267.459 252.393 257.889C250.483 255.949 248.643 255.159 245.763 255.249C241.263 255.389 236.743 254.439 232.213 254.199C217.533 253.409 202.843 252.779 188.163 251.989C185.283 251.829 182.393 251.379 179.563 250.759C177.333 250.269 175.443 249.009 175.473 246.359C175.503 243.699 177.453 242.499 179.703 242.129C183.093 241.569 186.553 240.949 189.963 241.089C203.563 241.649 217.153 242.509 230.753 243.229C232.513 243.319 234.283 243.239 236.733 243.239C235.723 241.889 235.133 240.859 234.323 240.049C227.023 232.709 219.663 225.429 212.383 218.059C210.253 215.899 207.973 214.719 204.803 214.489C194.303 213.729 183.833 212.659 173.353 211.619C171.573 211.439 169.613 211.189 168.143 210.299C166.943 209.579 165.693 207.859 165.673 206.569C165.663 205.289 166.913 203.589 168.093 202.819C169.353 201.989 171.173 201.789 172.773 201.719C178.753 201.459 184.743 201.369 190.733 201.219C191.923 201.189 193.123 201.219 195.663 201.219C188.763 194.209 182.723 188.089 176.753 182.029C163.263 184.579 155.563 181.869 151.413 173.189C148.173 166.429 149.963 157.979 155.793 152.819C162.343 147.029 170.663 146.999 178.023 151.459C185.333 155.879 187.003 163.969 183.443 174.939C190.523 181.929 197.663 188.979 204.803 196.019C205.233 195.849 205.663 195.679 206.093 195.509C206.093 190.489 206.003 185.479 206.123 180.459C206.213 176.649 206.493 172.849 206.863 169.049C207.003 167.639 207.223 165.939 208.083 164.959C209.293 163.579 211.133 161.899 212.703 161.909C214.293 161.909 216.633 163.489 217.273 164.969C218.383 167.539 218.873 170.579 218.863 173.409C218.833 183.389 218.673 193.389 218.163 203.359C217.953 207.539 219.153 210.499 222.173 213.379C229.933 220.769 237.373 228.489 244.963 236.059C246.083 237.179 247.303 238.199 249.193 239.929C249.693 236.389 250.153 233.629 250.483 230.849C252.493 213.869 255.863 197.159 260.513 180.709C261.103 178.629 261.893 176.549 262.973 174.689C264.253 172.469 266.353 171.349 268.993 172.179C271.373 172.929 272.563 174.839 272.423 177.179C272.133 182.429 271.893 187.719 271.053 192.899C268.393 209.199 265.463 225.459 262.633 241.739C262.573 242.099 262.583 242.499 262.423 242.809C259.023 249.539 262.133 253.949 267.083 258.519C275.623 266.389 283.593 274.889 291.813 283.099C293.063 284.349 294.403 285.509 296.293 287.269C297.913 281.699 299.453 276.879 300.703 271.989C306.323 249.979 310.243 227.639 313.923 205.239C314.643 200.839 316.393 196.559 318.023 192.369C318.633 190.789 320.053 189.339 321.443 188.269C323.433 186.739 325.813 187.109 327.083 189.279C328.153 191.089 328.783 193.259 329.143 195.349C330.343 202.299 328.643 209.089 327.563 215.889C323.593 240.819 318.953 265.619 311.793 289.869C311.433 291.069 311.253 292.329 310.863 294.139C316.623 294.579 322.133 294.919 327.633 295.449C334.493 296.099 341.373 296.739 348.203 297.689C355.853 298.749 357.283 300.499 358.603 307.909C361.533 324.349 364.553 340.769 367.763 357.149C368.143 359.079 369.733 360.979 371.213 362.439C387.463 378.559 403.813 394.569 420.103 410.649C437.293 427.619 454.443 444.629 471.623 461.619C472.903 462.879 474.233 464.089 476.073 465.829C479.843 463.389 483.563 460.979 487.543 458.399C485.873 454.519 484.453 451.209 483.033 447.899C479.113 438.719 475.103 429.569 471.313 420.329C470.013 417.159 468.183 414.739 465.233 412.969C450.143 403.909 435.093 394.779 420.033 385.659C418.173 384.529 416.163 383.569 414.533 382.179C411.353 379.469 410.753 375.099 412.823 371.839C414.783 368.759 418.623 367.469 422.443 368.789C423.793 369.259 425.043 370.069 426.293 370.789C435.873 376.349 445.433 381.929 455.013 387.489C455.573 387.809 456.233 387.949 457.563 388.429C456.723 386.279 456.193 384.809 455.573 383.369C450.953 372.509 446.233 361.689 441.753 350.779C440.493 347.719 438.783 345.749 435.613 344.489C423.303 339.609 411.103 334.469 398.873 329.409C397.713 328.929 396.503 328.429 395.513 327.679C392.953 325.749 392.083 322.689 393.113 319.939C394.233 316.949 397.153 315.089 400.493 315.649C402.433 315.979 404.323 316.759 406.133 317.559C412.773 320.489 419.373 323.529 425.993 326.489C427.603 327.209 429.263 327.809 431.723 328.799C431.173 326.859 430.973 325.699 430.523 324.639C427.023 316.269 423.413 307.939 419.973 299.529C419.023 297.199 417.653 295.669 415.333 294.589C406.623 290.529 397.993 286.279 389.343 282.079C388.363 281.609 387.373 281.129 386.483 280.519C383.063 278.139 381.823 274.669 383.213 271.619C384.713 268.349 388.403 266.959 392.543 268.339C394.243 268.899 395.823 269.869 397.403 270.749C400.413 272.429 403.363 274.219 406.383 275.889C407.263 276.379 408.263 276.649 410.403 277.479C403.123 260.159 396.273 243.879 389.413 227.559C373.053 225.789 363.203 217.719 361.823 204.909C360.523 192.769 367.773 181.429 379.163 177.769C391.153 173.929 403.313 178.919 409.733 190.329C416.223 201.869 413.403 212.999 401.013 224.049C407.943 240.069 414.903 256.169 422.373 273.439C423.433 270.989 424.103 269.479 424.753 267.969C426.813 263.139 428.723 258.229 431.003 253.499C431.923 251.599 433.373 249.699 435.083 248.539C436.353 247.669 438.753 247.309 440.053 247.949C441.323 248.579 442.523 250.739 442.543 252.239C442.573 254.699 441.883 257.269 441.043 259.639C437.813 268.699 434.333 277.669 431.123 286.739C430.503 288.489 429.943 290.809 430.573 292.359C435.253 303.749 440.253 315.009 445.483 327.079C446.503 325.519 447.233 324.639 447.713 323.629C451.613 315.429 455.413 307.189 459.363 299.019C460.783 296.089 462.413 293.249 464.193 290.519C465.053 289.189 466.303 287.879 467.693 287.189C468.833 286.619 470.873 286.409 471.723 287.069C472.783 287.889 473.463 289.739 473.523 291.169C473.583 292.719 472.833 294.339 472.253 295.859C466.533 310.959 460.863 326.089 454.963 341.119C453.823 344.019 453.643 346.419 454.943 349.329C460.973 362.939 466.783 376.639 472.703 390.309C473.313 391.719 474.103 393.059 475.273 395.339C476.143 392.749 476.773 391.129 477.233 389.459C480.543 377.569 483.753 365.659 487.133 353.789C488.223 349.959 489.563 346.189 491.063 342.499C491.723 340.869 492.833 339.259 494.143 338.099C497.023 335.529 500.803 336.719 501.693 340.549C502.173 342.599 501.983 344.879 501.733 347.009C499.253 368.029 493.883 388.379 486.653 408.209C484.603 413.839 484.223 418.629 487.093 424.129C490.603 430.869 493.413 438.009 496.113 445.129C497.823 449.639 501.003 451.189 505.343 451.129C507.323 451.099 509.303 450.689 511.263 450.339C519.893 448.769 520.473 448.029 520.533 439.589C520.813 393.089 521.093 346.589 521.473 300.089C521.513 295.609 520.833 291.689 518.213 287.809C510.293 276.079 502.713 264.109 495.063 252.199C493.893 250.379 492.793 248.459 492.053 246.439C490.693 242.779 492.173 239.769 494.653 237.019C502.783 227.969 510.853 218.869 518.943 209.779C519.293 209.389 519.513 208.889 520.073 207.989C518.823 206.409 517.613 204.639 516.173 203.099C497.793 183.469 478.893 164.359 458.563 146.709C454.863 143.499 451.303 140.099 447.923 136.569C446.323 134.899 444.883 132.859 444.083 130.719C442.683 126.959 446.003 123.499 449.763 124.909C452.763 126.039 455.713 127.749 458.163 129.829C470.643 140.369 483.133 150.909 495.243 161.869C502.773 168.679 509.663 176.209 516.763 183.489C517.873 184.629 518.563 186.169 519.443 187.529C519.923 187.229 520.413 186.929 520.893 186.629C521.063 185.489 521.383 184.349 521.393 183.209C521.413 169.769 521.373 156.329 521.393 142.889C521.393 140.609 521.153 138.729 518.883 137.339C517.403 136.429 516.323 134.799 515.203 133.389C506.303 122.119 497.153 111.089 486.833 101.059C483.713 98.0294 480.843 94.7194 478.003 91.4194C476.713 89.9194 475.643 88.1894 474.693 86.4494C473.673 84.5794 473.543 82.5894 475.213 80.9294C476.933 79.2194 478.983 79.4594 480.693 80.6994C483.763 82.9294 486.993 85.1093 489.543 87.8693C498.423 97.4593 507.053 107.279 515.763 117.029C517.193 118.629 518.573 120.289 520.523 122.569C520.863 120.719 521.243 119.599 521.243 118.479C521.283 107.949 521.233 97.4093 521.283 86.8693C521.303 83.8393 520.473 81.3793 518.393 78.9993C511.703 71.3393 505.243 63.4894 498.773 55.6494C497.513 54.1194 496.473 52.3894 495.513 50.6494C494.503 48.8394 494.803 46.8294 496.433 45.7594C497.623 44.9794 499.533 44.6994 500.943 45.0194C502.433 45.3594 503.853 46.4994 505.033 47.5794C509.053 51.2494 513.013 54.9894 516.883 58.8194C518.023 59.9394 518.783 61.4394 519.723 62.7694C520.203 62.5094 520.673 62.2394 521.153 61.9794V35.7694C516.523 33.5794 511.983 30.3995 510.063 24.6095C508.783 20.7195 508.433 16.8294 509.713 12.8494C512.143 5.28944 519.023 0.659427 527.283 0.959427C535.653 1.25943 541.993 7.2494 544.083 15.5594C546.163 23.8294 541.863 30.6494 531.513 36.0694V66.6193C533.033 65.5293 534.033 64.9694 534.853 64.2094C539.773 59.6294 544.603 54.9594 549.573 50.4394C551.163 48.9894 553.013 47.7694 554.893 46.7094C556.933 45.5594 559.123 45.5794 560.993 47.1994C563.093 49.0094 563.203 51.4594 562.133 53.6794C561.123 55.7594 559.703 57.7594 558.063 59.3894C550.703 66.6694 543.323 73.9294 535.693 80.9294C532.783 83.5994 531.493 86.3294 531.573 90.3494C531.833 102.679 531.663 115.019 531.663 128.559C533.873 126.969 535.413 125.949 536.853 124.799C550.843 113.739 565.533 103.739 581.103 95.0394C583.153 93.8994 585.323 92.8994 587.533 92.1494C589.793 91.3794 591.953 92.0193 593.353 93.9893C594.923 96.2093 594.443 98.4993 592.793 100.499C591.993 101.469 591.053 102.359 590.063 103.149C586.093 106.319 582.183 109.589 578.053 112.539C565.943 121.209 553.763 129.769 541.553 138.299C538.443 140.479 535.133 142.389 531.723 144.539V194.819C533.663 193.989 535.303 193.499 536.733 192.649C545.173 187.659 553.763 182.889 561.913 177.469C575.223 168.629 588.173 159.249 601.403 150.299C605.123 147.779 609.283 145.909 613.273 143.809C614.063 143.399 614.983 143.139 615.873 143.049C618.223 142.799 620.713 142.449 622.283 144.839C623.833 147.199 622.923 149.639 621.443 151.419C618.573 154.879 615.663 158.529 612.093 161.169C589.763 177.719 567.063 193.739 542.633 207.109C540.903 208.059 539.253 209.149 537.163 210.419C538.213 211.759 539.013 212.869 539.913 213.909C544.653 219.419 549.473 224.849 554.133 230.419C556.813 233.619 559.363 236.939 561.753 240.359C565.513 245.739 565.413 247.859 561.753 253.169C554.003 264.369 546.273 275.579 538.543 286.789C536.583 289.629 534.403 292.349 532.833 295.389C531.893 297.189 531.603 299.499 531.603 301.579C531.603 319.559 531.733 337.539 531.843 355.529C532.023 384.589 532.223 413.649 532.413 442.709C532.453 448.659 532.773 449.109 538.513 450.239C540.803 450.689 543.143 450.939 545.673 451.309C546.423 449.829 547.153 448.619 547.673 447.309C552.343 435.689 556.943 424.039 561.673 412.439C562.743 409.809 562.963 407.339 562.463 404.519C559.363 386.969 554.683 369.809 549.753 352.709C549.203 350.789 548.523 348.879 548.253 346.919C547.643 342.409 549.993 338.729 553.973 337.609C557.913 336.499 561.773 338.519 563.513 342.819C564.253 344.659 564.613 346.649 565.133 348.569C567.943 359.039 570.753 369.499 573.813 380.889C574.893 378.909 575.673 377.759 576.183 376.509C580.813 365.069 585.333 353.579 590.053 342.169C591.113 339.609 591.063 337.439 589.983 334.909C584.723 322.559 579.623 310.149 574.463 297.749C574.113 296.909 573.713 296.079 573.503 295.209C572.623 291.709 574.113 288.249 577.023 286.879C579.983 285.489 583.663 286.439 585.623 289.489C586.883 291.449 587.693 293.709 588.533 295.909C591.603 303.849 594.603 311.809 597.933 320.559C598.933 318.959 599.693 318.069 600.113 317.039C603.553 308.639 606.883 300.199 610.373 291.819C611.403 289.339 611.613 287.159 610.643 284.519C607.383 275.669 604.373 266.719 601.393 257.769C600.723 255.749 600.293 253.549 600.273 251.429C600.253 248.649 601.853 246.589 604.493 245.659C607.143 244.719 609.763 245.389 611.373 247.579C612.833 249.559 613.863 251.969 614.623 254.329C616.093 258.929 617.243 263.629 618.523 268.289C618.913 268.289 619.303 268.299 619.683 268.309C626.343 251.959 633.003 235.619 639.823 218.909C634.353 213.419 630.753 206.679 631.033 198.369C631.223 192.779 632.923 187.679 636.483 183.269C643.783 174.229 656.623 171.229 667.003 176.149C678.123 181.419 683.493 192.439 680.953 205.149C679.573 212.049 675.903 217.499 669.903 221.329C663.923 225.139 657.353 225.639 650.593 224.399C643.943 241.209 637.493 257.499 630.633 274.819C633.413 273.659 635.153 272.919 636.913 272.209C641.283 270.439 645.633 268.649 650.033 266.949C651.203 266.499 652.483 266.239 653.733 266.079C657.943 265.539 660.293 266.439 661.293 268.839C662.373 271.449 661.203 274.229 657.273 276.169C647.683 280.919 638.003 285.509 628.213 289.829C625.143 291.179 623.233 292.849 622.043 296.039C617.973 306.879 613.593 317.609 609.033 329.139C611.063 328.629 612.403 328.409 613.673 327.949C622.213 324.899 630.693 321.649 639.293 318.769C643.033 317.519 647.003 316.829 650.913 316.219C653.173 315.869 655.383 316.649 656.043 319.229C656.703 321.829 655.003 323.309 652.943 324.339C647.263 327.179 641.623 330.129 635.833 332.719C625.723 337.239 615.523 341.529 605.343 345.879C603.323 346.749 601.533 347.599 600.623 349.949C594.623 365.339 588.473 380.669 582.413 396.039C582.243 396.469 582.393 397.029 582.393 397.959C583.733 397.359 584.873 396.959 585.903 396.369C596.813 390.219 607.683 383.989 618.623 377.899C622.423 375.789 626.353 373.889 630.313 372.089C631.763 371.429 633.473 371.059 635.063 371.049C639.413 371.009 641.673 375.089 639.093 378.599C637.523 380.749 635.293 382.479 633.153 384.139C617.263 396.389 600.073 406.569 581.893 414.909C575.653 417.769 571.623 421.369 569.543 427.989C567.323 435.069 564.273 441.909 561.263 448.709C559.613 452.449 560.323 455.429 562.983 458.109C564.633 459.769 566.473 461.299 568.403 462.629C576.053 467.899 576.253 467.809 582.903 461.249C616.253 428.329 649.613 395.409 683.023 362.549C685.573 360.039 687.233 357.419 687.963 353.809C690.873 339.399 694.153 325.079 697.193 310.689C698.923 302.469 701.333 300.389 709.603 299.899C721.543 299.189 733.483 298.309 745.963 297.459C746.193 295.999 746.573 294.459 746.643 292.909C747.803 265.309 747.883 237.709 745.813 210.139C745.463 205.439 745.463 200.699 745.523 195.979C745.543 194.019 745.983 192.019 746.523 190.109C747.103 188.059 748.493 186.619 750.783 186.479C753.383 186.319 754.893 187.899 755.623 190.099C756.423 192.499 757.043 194.979 757.433 197.479C760.193 215.289 761.173 233.229 761.183 251.229C761.183 260.859 761.043 270.479 760.973 280.109C760.973 280.969 761.053 281.839 761.133 283.479C762.563 282.429 763.583 281.859 764.383 281.059C773.903 271.569 783.363 262.019 792.913 252.559C794.703 250.789 795.243 249.099 795.253 246.429C795.273 240.109 796.353 233.789 796.763 227.459C797.313 218.949 797.643 210.419 798.053 201.899C798.333 196.099 798.413 190.279 798.903 184.489C799.093 182.209 799.743 179.779 800.883 177.809C802.523 174.959 805.783 175.109 807.453 177.949C808.253 179.309 808.773 180.999 808.853 182.569C809.173 188.359 809.653 194.179 809.363 199.959C808.793 211.559 807.753 223.139 806.923 234.729C806.873 235.439 806.923 236.169 806.923 237.479C808.203 236.569 809.253 236.009 810.063 235.199C817.543 227.779 824.933 220.269 832.443 212.889C834.773 210.609 835.883 208.129 836.123 204.799C836.893 194.119 837.953 183.459 839.083 172.809C839.593 168.029 841.213 165.979 843.853 165.859C846.703 165.739 848.593 168.159 848.873 173.069C849.193 178.689 849.173 184.319 849.283 189.949C849.313 191.509 849.283 193.069 850.273 195.169C856.383 189.149 862.483 183.139 868.543 177.169C865.903 164.089 868.423 156.499 876.833 152.099C883.553 148.579 892.533 150.249 897.703 156.229C903.393 162.809 903.713 169.979 899.413 177.969C895.303 185.599 887.223 187.409 876.483 184.249C869.003 191.279 861.763 198.079 853.783 205.579C856.003 205.899 857.143 206.159 858.283 206.209C865.543 206.529 872.803 206.719 880.053 207.139C882.003 207.249 884.083 207.669 885.793 208.559C889.823 210.649 889.933 215.589 885.893 217.619C883.723 218.709 881.023 219.169 878.553 219.179C867.843 219.209 857.123 219.079 846.413 218.739C842.903 218.629 840.273 219.429 837.743 222.049C829.073 231.059 820.143 239.829 810.573 249.439C813.283 249.929 815.263 250.409 817.263 250.629C834.803 252.559 852.053 256.009 869.043 260.719C871.463 261.389 873.853 262.369 876.063 263.569C878.163 264.699 879.033 266.769 878.453 269.149C877.853 271.599 875.993 272.869 873.633 272.759C868.563 272.529 863.453 272.339 858.463 271.519C841.273 268.709 824.113 265.669 806.953 262.649C804.473 262.209 802.053 261.409 800.033 260.879C788.103 272.899 776.373 284.719 764.343 296.839C767.183 297.759 770.353 298.949 773.603 299.819C796.603 305.979 819.993 310.199 843.463 314.039C848.063 314.789 852.523 316.449 857.023 317.789C858.043 318.089 858.993 318.729 859.873 319.369C861.843 320.789 864.013 322.649 862.943 325.129C862.213 326.829 860.013 328.649 858.203 328.979C854.153 329.699 849.853 330.189 845.813 329.609C817.593 325.569 789.543 320.589 762.103 312.669C760.403 312.179 758.643 311.859 756.343 311.329C756.063 315.219 755.863 318.629 755.553 322.029C754.773 330.529 753.973 339.019 753.123 347.509C752.983 348.949 752.583 350.359 752.303 351.779C751.493 355.849 748.923 357.949 744.913 358.689C728.313 361.749 711.753 364.999 695.133 367.899C692.013 368.439 689.863 369.799 687.763 371.929C659.113 401.079 630.433 430.189 601.723 459.279C596.253 464.829 590.633 470.229 584.573 476.199C587.163 480.229 589.553 483.949 591.973 487.719C593.803 487.099 595.013 486.779 596.153 486.299C607.843 481.319 619.483 476.229 631.223 471.369C634.113 470.169 636.043 468.259 637.573 465.719C646.683 450.649 655.793 435.589 664.893 420.519C665.833 418.969 666.593 417.289 667.673 415.839C670.453 412.109 674.653 411.039 678.213 412.989C682.043 415.079 683.343 419.399 681.373 423.839C680.793 425.159 679.953 426.369 679.223 427.619C673.843 436.879 668.453 446.139 663.093 455.419C662.773 455.979 662.633 456.629 662.173 457.899C663.613 457.419 664.433 457.199 665.203 456.869C677.063 451.829 688.883 446.699 700.793 441.789C703.403 440.709 704.813 439.059 705.833 436.549C710.873 424.109 716.013 411.709 721.163 399.309C721.713 397.989 722.373 396.639 723.273 395.549C725.103 393.359 728.133 392.679 730.703 393.619C733.273 394.559 735.053 396.969 734.853 399.999C734.723 401.939 734.133 403.929 733.353 405.719C730.393 412.549 727.263 419.299 724.213 426.089C723.403 427.889 722.663 429.729 721.573 432.289C723.343 431.789 724.503 431.589 725.563 431.149C733.933 427.649 742.253 424.019 750.673 420.629C753.403 419.529 755.023 417.839 756.253 415.169C760.193 406.599 764.363 398.129 768.563 389.679C769.433 387.929 770.593 386.209 772.003 384.879C773.993 383.009 776.533 382.589 779.093 383.789C781.683 384.999 783.043 387.309 782.603 389.979C782.173 392.579 781.143 395.169 779.933 397.549C777.823 401.689 775.373 405.659 773.063 409.709C773.323 409.999 773.583 410.279 773.843 410.569C790.123 403.719 806.413 396.859 822.743 389.989C825.213 372.589 833.573 363.009 847.113 362.129C858.803 361.369 869.823 369.199 873.033 380.529C876.463 392.659 871.073 404.589 859.423 410.659C848.073 416.569 836.543 413.419 826.593 401.439C810.533 408.399 794.363 415.399 778.193 422.399C778.203 422.759 778.213 423.129 778.233 423.489C780.523 424.369 782.843 425.169 785.083 426.139C789.403 428.019 793.693 429.969 797.963 431.949C798.773 432.329 799.493 432.929 800.183 433.509C803.013 435.859 803.923 438.279 802.863 440.549C801.813 442.799 799.283 443.849 795.773 442.859C790.893 441.489 786.073 439.859 781.293 438.149C775.313 435.999 769.453 433.539 763.443 431.479C761.703 430.879 759.383 430.539 757.793 431.199C746.733 435.789 735.793 440.659 724.823 445.469C724.523 445.599 724.323 445.979 723.723 446.609C727.543 448.449 731.213 450.249 734.913 451.999C740.983 454.869 747.133 457.579 753.133 460.589C756.033 462.039 758.843 463.799 761.393 465.789C764.143 467.949 764.833 470.549 763.553 472.369C761.853 474.789 759.513 474.319 757.173 473.509C750.153 471.059 743.073 468.759 736.123 466.119C726.963 462.639 717.893 458.939 708.813 455.249C706.733 454.409 704.873 453.819 702.593 454.819C687.463 461.439 672.283 467.939 657.123 474.509C656.663 474.709 656.323 475.179 655.543 475.849C657.283 476.449 658.703 477.019 660.163 477.429C672.403 480.819 684.663 484.149 696.883 487.589C700.373 488.569 703.803 489.769 707.173 491.099C708.833 491.749 710.623 492.639 711.743 493.939C712.803 495.169 713.613 497.109 713.553 498.709C713.463 500.899 711.533 502.189 709.413 502.359C707.083 502.539 704.683 502.459 702.363 502.149C681.773 499.409 661.723 494.329 642.293 487.089C636.583 484.959 631.783 484.879 626.333 487.639C619.383 491.159 612.093 494.029 604.843 496.909C601.293 498.319 599.583 500.749 599.573 504.319C599.563 507.009 599.873 509.749 600.383 512.399C601.953 520.509 602.603 520.949 610.553 520.999C657.593 521.319 704.643 521.629 751.683 522.049C755.453 522.079 758.663 521.329 761.863 519.199C773.953 511.169 786.193 503.349 798.433 495.529C800.393 494.279 802.533 493.189 804.733 492.429C807.993 491.299 810.763 492.659 813.193 494.819C822.013 502.659 830.823 510.509 839.653 518.339C840.443 519.039 841.303 519.659 842.493 520.599C844.253 519.199 846.023 517.989 847.563 516.539C867.203 498.159 886.293 479.249 903.943 458.929C907.393 454.959 911.103 451.199 914.923 447.589C916.443 446.159 918.503 444.979 920.523 444.469C924.013 443.599 926.823 446.499 925.673 449.909C924.713 452.769 923.153 455.599 921.243 457.939C912.623 468.479 904.103 479.129 894.933 489.169C886.123 498.819 876.583 507.799 867.303 517.019C866.043 518.279 864.493 519.249 863.083 520.359C863.303 520.739 863.533 521.129 863.753 521.509C864.723 521.659 865.693 521.949 866.663 521.949C880.283 521.979 893.913 521.939 907.533 521.979C909.803 521.979 911.673 521.779 913.103 519.539C914.133 517.919 915.933 516.779 917.433 515.459C928.063 506.109 938.703 496.769 949.323 487.419C953.413 483.829 957.333 480.029 961.603 476.659C965.123 473.889 967.613 473.779 969.493 475.469C971.523 477.299 971.373 479.919 968.273 483.689C965.173 487.469 961.863 491.139 958.253 494.419C949.793 502.119 941.103 509.569 932.503 517.109C931.153 518.289 929.783 519.439 927.793 521.139C929.433 521.489 930.333 521.849 931.243 521.849C941.783 521.889 952.313 521.809 962.853 521.899C966.283 521.929 969.083 521.059 971.753 518.719C979.263 512.139 986.983 505.799 994.673 499.429C996.203 498.159 997.863 496.989 999.643 496.119C1001.54 495.189 1003.88 495.089 1004.99 497.109C1005.73 498.469 1005.89 500.719 1005.28 502.119C1004.37 504.219 1002.69 506.049 1001.09 507.769C996.913 512.249 992.593 516.599 987.693 521.659H1014.97C1016.84 516.619 1020.51 512.289 1026.44 510.379C1030.34 509.119 1034.28 508.989 1038.22 510.309C1045.51 512.759 1050.17 520.089 1049.62 528.259C1049.04 536.799 1042.97 542.499 1035.11 544.619C1027.08 546.789 1020.14 542.369 1014.52 532.149H983.423C987.613 536.599 991.193 540.359 994.713 544.159C997.183 546.819 999.723 549.429 1001.97 552.279C1005.26 556.429 1005.47 559.769 1002.94 562.009C1000.57 564.109 997.233 563.919 993.633 560.629C988.143 555.619 982.953 550.259 977.723 544.959C974.413 541.599 971.383 537.939 967.973 534.689C966.653 533.429 964.633 532.209 962.913 532.189C949.673 531.979 936.423 532.079 922.043 532.079C923.593 534.269 924.593 535.849 925.753 537.309C936.703 551.149 946.593 565.699 955.273 581.079C956.253 582.809 957.233 584.579 957.933 586.439C959.283 590.019 958.593 592.759 956.223 594.189C953.973 595.539 951.643 595.039 949.003 592.279C946.873 590.049 944.803 587.729 943.013 585.219C930.573 567.789 918.213 550.289 905.403 532.219H855.433C857.493 536.149 859.043 539.779 861.153 543.049C871.703 559.359 882.363 575.599 893.083 591.799C895.983 596.189 899.493 600.199 902.223 604.679C904.373 608.199 905.993 612.099 907.433 615.979C908.333 618.409 908.193 621.199 905.683 622.849C903.393 624.349 900.893 623.439 899.093 621.929C895.653 619.029 892.023 616.109 889.373 612.539C872.713 590.069 856.603 567.199 843.173 542.589C842.313 541.019 841.293 539.549 840.093 537.639C838.493 538.969 837.153 540.089 835.813 541.199C827.573 548.039 819.473 555.059 811.033 561.649C805.013 566.349 802.833 565.989 796.443 561.569C782.713 552.059 768.963 542.569 755.103 533.249C753.613 532.249 751.363 532.029 749.463 532.029C731.113 532.049 712.773 532.169 694.423 532.299C665.723 532.499 637.023 532.729 608.333 532.949C606.523 532.959 604.723 532.949 602.903 532.949C599.953 537.039 599.893 541.579 599.373 546.249C600.803 546.969 602.033 547.689 603.343 548.219C614.963 552.899 626.603 557.509 638.203 562.229C640.813 563.289 643.293 563.479 646.123 562.979C663.853 559.839 681.163 555.049 698.443 550.119C700.183 549.619 701.923 548.999 703.703 548.739C707.823 548.139 711.633 550.429 712.813 554.019C714.113 557.989 712.293 561.969 708.173 563.859C706.873 564.459 705.423 564.759 704.023 565.129C693.503 567.919 682.973 570.689 672.453 573.499C671.823 573.669 671.243 574.049 669.913 574.659C671.993 575.639 673.353 576.359 674.773 576.939C685.873 581.439 697.013 585.859 708.073 590.449C710.763 591.569 713.083 591.639 715.823 590.469C728.153 585.169 740.563 580.069 752.953 574.919C754.123 574.439 755.343 573.969 756.573 573.779C759.323 573.359 762.213 574.859 763.483 577.169C764.863 579.669 764.473 583.189 762.193 585.169C760.723 586.439 758.873 587.379 757.053 588.099C749.963 590.899 742.813 593.529 735.693 596.249C733.883 596.939 732.113 597.749 729.363 598.899C740.473 603.409 750.513 607.559 760.653 611.499C761.993 612.019 763.873 611.789 765.313 611.309C774.433 608.259 783.473 604.99 792.583 601.919C794.613 601.24 796.803 600.719 798.913 600.709C801.913 600.689 804.273 602.679 805.033 605.269C805.843 608.029 804.963 610.529 802.803 612.079C800.803 613.509 798.363 614.459 795.983 615.199C791.373 616.649 786.663 617.809 782.003 620.089C798.423 626.789 814.843 633.479 831.723 640.369C836.973 634.859 843.793 631.319 852.053 631.529C857.793 631.669 863.103 633.449 867.613 637.229C876.693 644.839 879.393 657.949 874.003 668.369C868.213 679.569 856.223 684.539 843.463 681.029C831.053 677.609 825.173 667.689 825.813 650.969C809.583 644.539 793.263 638.069 775.973 631.219C776.803 633.439 777.293 634.849 777.843 636.239C779.903 641.469 782.093 646.639 783.963 651.939C784.603 653.759 784.893 655.969 784.473 657.799C784.123 659.319 782.733 661.239 781.373 661.699C780.003 662.159 777.643 661.539 776.533 660.509C774.863 658.969 773.683 656.769 772.683 654.659C768.563 645.969 764.463 637.259 760.633 628.439C759.383 625.559 757.703 623.739 754.753 622.619C743.903 618.499 733.143 614.169 721.643 609.639C721.993 611.379 722.093 612.539 722.463 613.599C725.483 622.159 728.593 630.689 731.593 639.249C732.553 641.979 733.403 644.769 734.063 647.589C734.433 649.149 734.753 650.959 734.303 652.419C733.833 653.959 732.693 655.709 731.343 656.449C729.543 657.449 727.893 656.099 726.833 654.449C726.053 653.229 725.323 651.959 724.733 650.639C718.233 636.249 711.633 621.899 705.393 607.399C703.843 603.799 701.923 601.539 698.163 600.119C684.413 594.919 670.813 589.349 657.143 583.919C655.833 583.399 654.503 582.939 652.353 582.149C653.203 584.119 653.623 585.419 654.283 586.579C660.523 597.649 666.833 608.679 673.053 619.769C674.823 622.929 676.453 626.179 677.943 629.489C678.673 631.119 679.103 632.939 679.373 634.719C679.713 637.019 679.083 639.049 676.813 640.239C674.703 641.349 672.823 640.579 671.323 639.189C669.603 637.599 668.063 635.779 666.623 633.919C654.353 618.039 644.183 600.849 635.783 582.689C632.843 576.349 629.243 572.049 622.383 569.949C615.293 567.779 608.483 564.649 601.663 561.689C598.163 560.169 595.093 560.639 592.753 563.309C590.023 566.409 587.473 569.769 585.453 573.359C583.313 577.169 583.663 577.679 586.823 580.879C603.933 598.189 621.083 615.459 638.183 632.779C655.023 649.839 671.843 666.939 688.623 684.059C690.713 686.189 692.883 687.629 695.963 688.249C710.723 691.229 725.403 694.579 740.143 697.649C747.723 699.229 750.183 701.849 750.663 709.789C751.333 721.029 751.933 732.269 752.583 743.499C752.633 744.389 752.863 745.259 753.073 746.549C755.603 746.819 758.083 747.249 760.583 747.329C787.823 748.169 815.063 748.199 842.273 746.269C845.713 746.029 849.163 745.879 852.613 745.899C854.773 745.909 856.973 746.169 859.093 746.609C862.293 747.279 864.203 749.169 864.173 751.449C864.133 754.259 862.203 755.619 859.843 756.399C858.133 756.969 856.343 757.38 854.563 757.669C837.493 760.45 820.283 761.519 803.023 761.739C793.033 761.869 783.043 761.689 773.053 761.649C771.323 761.649 769.593 761.649 766.713 761.649C768.693 763.829 769.803 765.159 771.023 766.389C779.623 774.999 788.293 783.539 796.813 792.229C799.213 794.679 801.453 796.109 805.263 795.749C809.343 795.369 813.543 796.549 817.713 796.769C831.853 797.539 845.993 798.169 860.133 798.919C863.023 799.07 865.933 799.299 868.773 799.829C872.773 800.579 874.593 802.169 874.703 804.469C874.823 806.939 872.873 808.579 868.463 809.349C866.153 809.749 863.763 810.009 861.423 809.909C849.093 809.399 836.763 808.769 824.433 808.139C820.893 807.959 817.363 807.669 812.673 807.359C814.003 808.989 814.473 809.679 815.063 810.269C822.753 817.989 830.483 825.669 838.163 833.409C840.033 835.299 842.103 836.259 844.843 836.469C855.343 837.279 865.823 838.299 876.293 839.329C878.253 839.519 880.373 839.819 882.043 840.739C883.253 841.409 884.533 843.199 884.523 844.489C884.523 845.769 883.183 847.369 881.993 848.219C880.913 848.989 879.263 849.169 877.853 849.239C871.873 849.529 865.883 849.689 859.903 849.879C858.543 849.919 857.183 849.879 854.523 849.879C861.363 856.819 867.293 862.829 873.563 869.189C874.803 868.839 876.313 868.359 877.853 867.979C887.213 865.699 897.083 871.359 899.723 880.519C902.273 889.329 896.813 899.259 887.563 901.899C881.273 903.699 875.193 902.559 870.233 898.149C865.213 893.689 863.623 887.889 865.103 881.319C865.503 879.569 866.103 877.879 866.633 876.079C859.533 869.049 852.503 862.089 844.603 854.269C844.333 860.339 844.103 865.139 843.903 869.939C843.763 873.389 843.833 876.849 843.483 880.279C843.263 882.399 842.813 884.669 841.813 886.499C839.723 890.309 835.113 890.419 833.103 886.589C831.903 884.299 831.403 881.389 831.393 878.759C831.333 868.409 831.363 858.049 831.823 847.709C832.023 843.309 830.733 840.239 827.553 837.239C820.033 830.129 812.863 822.649 805.533 815.339C804.273 814.079 802.933 812.899 800.943 811.039C800.233 816.079 799.623 820.309 799.053 824.539C796.973 840.039 793.863 855.319 789.573 870.359C789.123 871.929 788.623 873.499 787.923 874.959C786.393 878.159 784.103 879.539 781.593 878.999C779.003 878.439 777.433 876.309 777.583 872.699C777.753 868.529 778.063 864.339 778.763 860.239C782.193 840.039 785.763 819.869 789.313 799.539C777.803 788.199 766.043 776.619 753.873 764.629C753.313 766.109 752.453 767.809 752.023 769.609C748.703 783.559 745.203 797.459 742.293 811.499C739.753 823.759 738.113 836.199 735.673 848.479C734.873 852.489 733.003 856.339 731.253 860.089C730.233 862.269 728.273 863.949 725.563 863.459C722.833 862.969 721.653 860.689 721.423 858.299C721.013 853.999 720.393 849.549 721.023 845.339C725.173 817.319 730.043 789.419 737.993 762.159C738.443 760.62 738.713 759.019 739.203 756.849C732.983 756.369 727.103 756.009 721.243 755.449C714.563 754.809 707.873 754.149 701.223 753.199C694.463 752.229 692.933 750.589 691.693 744.029C688.573 727.439 685.403 710.869 682.473 694.249C682.003 691.609 680.503 690.079 678.843 688.449C663.053 672.899 647.233 657.389 631.463 641.819C613.753 624.339 596.093 606.809 578.393 589.309C577.123 588.049 575.793 586.859 573.963 585.139C570.153 587.649 566.473 590.079 562.573 592.659C564.763 597.779 566.693 602.259 568.603 606.739C571.953 614.589 575.453 622.379 578.593 630.299C580.013 633.869 582.153 636.459 585.413 638.409C600.363 647.359 615.263 656.379 630.173 665.389C632.033 666.509 634.033 667.49 635.653 668.899C638.763 671.609 639.343 675.489 637.483 678.759C635.653 681.979 631.933 683.479 628.053 682.269C626.353 681.739 624.783 680.729 623.223 679.829C613.793 674.379 604.383 668.889 594.953 663.439C594.523 663.189 593.983 663.109 592.923 662.769C593.443 664.469 593.723 665.809 594.253 667.059C598.993 678.259 603.853 689.409 608.473 700.659C609.683 703.599 611.523 705.279 614.423 706.439C626.713 711.369 638.923 716.469 651.153 721.549C652.473 722.099 653.833 722.74 654.923 723.649C657.343 725.659 657.993 728.879 656.783 731.539C655.603 734.139 652.623 735.869 649.603 735.359C647.843 735.059 646.123 734.349 644.473 733.629C637.503 730.549 630.573 727.369 623.613 724.269C622.033 723.559 620.373 723.019 617.693 722.009C620.513 728.699 622.843 734.339 625.273 739.939C627.433 744.919 628.713 750.769 632.203 754.559C635.553 758.199 641.203 759.769 645.923 762.079C650.653 764.389 655.523 766.409 660.233 768.729C662.153 769.669 664.063 770.859 665.563 772.359C667.593 774.389 667.853 777.739 666.553 779.949C665.113 782.399 662.713 783.559 660.093 783.119C657.663 782.709 655.283 781.599 653.063 780.439C648.943 778.299 644.963 775.899 640.923 773.599C640.623 773.869 640.313 774.149 640.013 774.419C646.853 790.68 653.683 806.949 660.673 823.579C668.503 823.479 675.733 825.799 681.423 831.879C685.543 836.289 687.893 841.469 688.323 847.509C689.163 859.389 681.203 870.419 669.473 873.599C657.723 876.789 645.783 871.249 639.853 859.849C633.953 848.509 637.143 836.859 649.063 827.049C642.093 810.949 635.083 794.749 627.513 777.249C626.053 781.149 625.173 783.799 624.073 786.349C622.353 790.339 620.593 794.329 618.613 798.199C617.813 799.769 616.483 801.139 615.183 802.369C613.583 803.879 611.343 804.299 609.683 802.969C608.443 801.979 607.403 800.029 607.333 798.469C607.243 796.379 607.993 794.18 608.723 792.149C612.103 782.759 615.653 773.429 619.013 764.029C619.583 762.429 620.153 760.309 619.573 758.899C614.793 747.339 609.733 735.899 604.453 723.729C603.413 725.509 602.653 726.629 602.073 727.839C598.183 736.039 594.423 744.299 590.443 752.459C588.943 755.539 587.113 758.499 585.143 761.309C584.263 762.569 582.793 763.649 581.353 764.229C578.783 765.259 576.493 763.68 576.483 760.909C576.483 759.319 576.903 757.659 577.473 756.159C583.143 741.039 588.763 725.899 594.693 710.879C596.133 707.229 596.293 704.229 594.663 700.579C588.713 687.329 583.103 673.929 577.343 660.599C576.703 659.129 575.943 657.709 574.903 655.599C574.183 657.529 573.603 658.769 573.243 660.069C569.633 672.999 566.153 685.979 562.413 698.879C561.263 702.859 559.573 706.709 557.883 710.509C556.973 712.549 555.343 714.059 552.843 714.129C550.033 714.199 547.953 712.269 548.123 708.709C548.373 703.469 548.983 698.219 549.873 693.039C552.893 675.459 557.533 658.289 563.753 641.589C565.503 636.889 565.823 632.859 563.473 628.169C559.823 620.88 556.733 613.279 553.793 605.669C552.233 601.62 549.403 599.649 545.533 599.979C541.083 600.359 536.693 601.609 532.323 602.659C530.353 603.139 529.353 604.619 529.573 606.759C529.633 607.299 529.573 607.849 529.573 608.389C529.243 656.339 528.933 704.289 528.523 752.239C528.493 756.009 529.243 759.209 531.373 762.419C539.413 774.51 547.113 786.829 555.133 798.939C559.703 805.839 559.013 810.239 554.153 815.449C545.993 824.199 538.323 833.409 530.013 842.909C531.103 844.349 532.233 846.149 533.663 847.679C551.933 867.159 570.653 886.199 590.843 903.719C594.683 907.049 598.343 910.599 601.913 914.209C603.413 915.729 604.703 917.579 605.663 919.499C606.583 921.339 606.543 923.419 604.913 925.059C603.293 926.679 601.283 926.879 599.393 925.829C596.543 924.249 593.583 922.719 591.123 920.629C579.083 910.419 566.993 900.239 555.313 889.619C547.533 882.539 540.403 874.739 532.973 867.269C531.873 866.159 530.693 865.13 528.873 863.419C528.743 865.459 528.593 866.629 528.593 867.809C528.583 881.069 528.633 894.329 528.553 907.589C528.533 910.289 528.823 912.459 531.533 913.939C532.873 914.669 533.773 916.269 534.783 917.549C543.663 928.829 552.823 939.859 563.153 949.879C566.273 952.909 569.113 956.229 571.983 959.519C573.173 960.879 574.203 962.409 575.073 963.989C576.163 965.979 576.703 968.169 574.853 970.029C572.963 971.929 570.713 971.409 568.883 970.059C565.823 967.809 562.663 965.559 560.113 962.789C551.133 953.039 542.403 943.069 533.583 933.179C532.313 931.749 531.073 930.289 528.993 927.879C528.823 930.559 528.673 931.909 528.663 933.269C528.643 943.259 528.733 953.249 528.613 963.239C528.573 966.679 529.383 969.449 531.723 972.129C538.423 979.779 544.863 987.649 551.333 995.489C552.593 997.009 553.903 998.689 554.473 1000.52C554.883 1001.86 554.643 1004.18 553.753 1004.94C552.633 1005.9 550.443 1006.17 548.883 1005.88C547.413 1005.61 546.003 1004.38 544.823 1003.29C540.683 999.479 536.653 995.549 532.583 991.669C531.593 990.719 530.573 989.799 528.863 988.219V1015.33C533.663 1017.41 537.893 1020.64 539.853 1026.16C541.303 1030.23 541.503 1034.37 540.243 1038.47C537.993 1045.79 530.493 1050.57 522.433 1050.06C513.653 1049.5 508.053 1043.46 505.973 1035.71C504.233 1029.21 506.623 1019.92 518.423 1015.19V984.219C516.883 985.439 515.913 986.099 515.063 986.889C510.153 991.479 505.333 996.169 500.343 1000.66C498.613 1002.22 496.633 1003.81 494.483 1004.47C492.853 1004.98 490.473 1004.55 488.963 1003.64C486.893 1002.4 486.593 999.819 487.693 997.779C489.053 995.269 490.743 992.809 492.763 990.789C499.703 983.859 506.673 976.95 513.983 970.419C517.453 967.329 518.673 964.049 518.543 959.509C518.253 949.159 518.473 938.809 518.483 928.449C518.483 926.869 518.483 925.289 518.483 922.429C516.063 924.149 514.483 925.159 513.023 926.319C499.183 937.269 484.613 947.139 469.243 955.809C467.353 956.879 465.393 957.879 463.353 958.609C460.353 959.679 457.943 958.959 456.513 956.919C455.083 954.88 455.343 952.449 457.643 950.049C459.523 948.089 461.573 946.25 463.773 944.659C474.953 936.579 486.183 928.559 497.453 920.579C504.253 915.759 511.143 911.069 518.383 906.049V856.219C516.543 856.969 514.883 857.429 513.463 858.269C505.173 863.149 496.733 867.819 488.733 873.139C475.273 882.079 462.163 891.539 448.773 900.589C445.053 903.109 440.903 904.999 436.933 907.139C436.303 907.479 435.583 907.739 434.873 907.829C432.353 908.149 429.573 908.799 427.853 906.299C426.183 903.879 427.073 901.179 428.763 899.239C431.843 895.709 434.953 892.039 438.683 889.279C461.013 872.729 483.743 856.759 508.213 843.439C509.633 842.669 510.943 841.709 512.683 840.609C511.753 839.329 511.013 838.159 510.123 837.119C505.053 831.179 499.883 825.319 494.863 819.339C492.533 816.559 490.343 813.649 488.273 810.669C484.633 805.409 484.703 802.999 488.273 797.839C495.703 787.079 503.133 776.319 510.553 765.559C512.813 762.269 515.273 759.089 517.203 755.609C518.183 753.839 518.553 751.519 518.553 749.459C518.533 734.569 518.313 719.669 518.223 704.779C518.013 672.629 517.843 640.479 517.663 608.329C517.633 602.429 517.253 601.879 511.623 600.769C509.323 600.309 506.973 600.089 504.373 599.729C503.673 601.099 502.933 602.309 502.403 603.609C497.713 615.219 493.123 626.879 488.363 638.459C487.203 641.289 487.073 643.979 487.613 646.939C490.813 664.659 495.583 681.979 500.513 699.259C501.103 701.339 501.723 703.489 501.783 705.629C501.883 709.609 499.253 712.729 495.593 713.539C492.243 714.279 488.743 712.629 487.013 709.219C486.203 707.629 485.743 705.829 485.283 704.079C482.483 693.559 479.733 683.019 476.943 672.489C476.813 671.989 476.443 671.559 475.923 670.629C475.213 671.899 474.543 672.829 474.123 673.869C469.413 685.479 464.803 697.119 460.023 708.699C458.983 711.219 458.883 713.399 459.983 715.959C465.253 728.309 470.353 740.719 475.493 753.119C475.973 754.279 476.463 755.489 476.653 756.719C477.183 760.159 475.563 763.049 472.613 764.229C469.863 765.329 466.773 764.579 464.813 762.009C463.733 760.589 462.963 758.889 462.313 757.209C459.623 750.269 457.043 743.289 454.393 736.339C453.693 734.489 452.893 732.68 451.853 730.169C450.913 732.06 450.233 733.259 449.713 734.529C446.333 742.759 443.073 751.029 439.603 759.219C438.553 761.709 438.403 763.879 439.373 766.489C442.703 775.509 445.793 784.619 448.893 793.719C449.473 795.409 449.913 797.239 449.933 799.009C449.963 801.969 448.043 804.589 445.583 805.319C442.673 806.189 439.943 805.489 438.313 803.019C436.853 800.809 435.903 798.189 435.103 795.629C433.753 791.319 432.703 786.929 430.483 782.429C423.793 798.809 417.103 815.199 410.193 832.119C415.793 837.499 419.323 844.419 418.953 852.929C418.703 858.739 416.873 863.949 413.013 868.379C405.313 877.219 392.603 879.719 382.293 874.429C371.113 868.689 366.233 857.309 369.443 844.489C372.623 831.789 381.963 826.039 399.643 826.109C406.053 809.929 412.513 793.639 419.383 776.299C416.823 777.299 415.243 777.889 413.673 778.519C408.963 780.419 404.333 782.519 399.533 784.149C397.373 784.889 394.853 785.109 392.583 784.849C388.473 784.389 386.923 780.249 389.743 777.219C391.303 775.549 393.443 774.269 395.543 773.279C404.563 768.999 413.693 764.959 422.693 760.659C424.363 759.859 426.363 758.569 427.013 757.009C431.753 745.629 436.183 734.129 441.023 721.879C439.023 722.359 437.703 722.559 436.473 722.999C427.933 726.059 419.453 729.309 410.853 732.189C407.113 733.439 403.143 734.099 399.233 734.739C396.943 735.109 394.723 734.319 393.973 731.859C393.203 729.289 394.943 727.759 397.003 726.739C403.333 723.579 409.623 720.32 416.073 717.419C425.673 713.109 435.383 709.039 445.093 704.969C447.223 704.079 448.673 702.93 449.563 700.659C455.443 685.609 461.473 670.619 467.433 655.609C467.683 654.979 467.723 654.269 468.003 652.899C466.253 653.699 464.983 654.169 463.823 654.819C452.753 661.059 441.743 667.399 430.623 673.559C426.833 675.659 422.823 677.409 418.843 679.139C417.553 679.699 416.013 679.99 414.613 679.919C410.553 679.709 408.523 675.859 410.873 672.539C412.313 670.519 414.343 668.839 416.333 667.289C432.473 654.769 449.993 644.449 468.493 635.889C474.503 633.109 478.503 629.659 480.503 623.179C482.683 616.089 485.723 609.239 488.713 602.429C490.443 598.489 489.693 595.339 486.843 592.539C482.933 588.679 478.543 585.529 472.823 584.439C471.873 585.269 470.883 586.049 469.993 586.929C435.723 620.729 401.493 654.569 367.163 688.309C364.453 690.979 362.753 693.819 361.993 697.529C359.093 711.749 355.923 725.919 353.013 740.139C351.373 748.159 348.673 750.549 340.643 751.029C328.693 751.739 316.763 752.649 303.993 753.529C303.743 755.899 303.283 758.509 303.223 761.119C302.593 788.179 302.353 815.239 304.253 842.269C304.533 846.249 304.523 850.259 304.563 854.249C304.573 855.699 304.413 857.159 304.173 858.589C303.563 862.279 301.973 864.209 299.463 864.459C296.863 864.719 294.843 863.319 294.023 859.469C292.733 853.449 291.813 847.339 291.073 841.219C288.383 818.979 288.783 796.619 288.943 774.279C288.953 772.299 288.943 770.319 288.943 767.569C287.493 768.609 286.453 769.159 285.653 769.949C276.133 779.429 266.683 788.999 257.103 798.429C255.243 800.259 254.833 802.029 254.893 804.629C254.993 809.129 254.103 813.649 253.843 818.179C253.123 830.859 252.533 843.549 251.843 856.229C251.623 860.209 251.273 864.19 250.943 868.159C250.863 869.06 250.713 869.979 250.423 870.829C249.693 872.969 248.613 874.999 246.043 875.059C243.413 875.119 242.203 873.18 241.743 870.909C241.243 868.43 240.703 865.879 240.793 863.389C241.273 849.969 241.923 836.549 242.553 823.139C242.693 820.139 243.003 817.139 243.323 812.959C241.563 814.429 240.733 815.019 240.023 815.729C232.523 823.209 225.073 830.74 217.523 838.169C215.333 840.32 214.163 842.659 213.943 845.789C213.243 855.749 212.323 865.699 211.413 875.639C211.233 877.619 210.833 879.599 210.313 881.519C209.743 883.619 208.353 885.039 206.033 885.019C203.683 884.999 202.243 883.49 201.873 881.399C201.273 878.009 200.873 874.569 200.743 871.129C200.563 866.249 200.693 861.359 200.693 856.469C200.293 856.239 199.903 856.009 199.503 855.789L199.483 855.829ZM186.393 660.809C186.253 669.449 193.443 676.799 202.133 676.919C211.283 677.049 218.313 670.509 218.553 661.639C218.793 653.009 211.333 645.529 202.303 645.339C192.963 645.149 186.543 651.389 186.393 660.809ZM389.583 186.769C381.163 186.639 373.733 194.119 373.693 202.769C373.653 211.979 380.233 218.949 389.093 219.069C397.643 219.189 405.143 211.559 405.283 202.599C405.423 193.419 398.973 186.919 389.583 186.769ZM657.023 217.169C666.103 217.069 673.743 209.739 673.653 201.209C673.563 192.799 665.983 185.569 657.293 185.619C648.543 185.659 640.853 193.439 641.073 202.019C641.303 210.619 648.293 217.269 657.013 217.169H657.023ZM848.023 405.639C857.403 405.709 863.593 399.499 863.683 389.949C863.763 381.429 856.343 374.049 847.693 374.049C838.573 374.049 831.613 380.759 831.553 389.619C831.493 398.359 838.903 405.569 848.023 405.639ZM644.943 848.919C645.043 858.19 651.633 864.459 661.033 864.229C669.243 864.019 676.453 856.599 676.523 848.279C676.593 839.059 669.403 831.719 660.503 831.929C651.863 832.129 644.843 839.799 644.953 848.929L644.943 848.919ZM185.253 393.309C185.323 401.989 192.533 409.319 201.093 409.399C209.873 409.489 217.003 402.259 216.823 393.449C216.643 384.439 209.183 376.799 200.693 376.909C192.193 377.029 185.183 384.469 185.253 393.309ZM393.543 833.799C384.553 833.709 376.593 840.859 376.293 849.299C376.003 857.389 383.723 865.149 392.273 865.359C401.193 865.579 408.803 858.299 408.873 849.479C408.943 840.739 402.243 833.889 393.543 833.799ZM833.363 657.099C833.303 666.119 840.503 673.979 848.953 674.129C857.333 674.269 864.713 666.869 864.883 658.149C865.053 649.24 857.743 641.69 848.923 641.669C840.193 641.649 833.423 648.369 833.373 657.109L833.363 657.099ZM348.173 309.399C337.523 308.339 327.073 307.049 316.563 306.529C316.403 306.899 316.243 307.259 316.083 307.629C328.463 319.949 340.833 332.269 353.213 344.579C353.493 344.379 353.763 344.169 354.043 343.969C352.113 332.569 350.173 321.179 348.173 309.389V309.399ZM518.123 828.599C519.293 819.619 518.933 778.719 517.703 774.649C510.853 784.289 504.173 793.699 497.253 803.439C504.083 811.679 510.763 819.729 518.123 828.609V828.599ZM701.913 741.709C712.763 742.709 723.143 743.659 733.993 744.649C730.723 739.499 700.143 709.219 696.083 707.079C698.023 718.619 699.913 729.839 701.913 741.709ZM305.983 733.609C318.653 721.099 330.973 708.949 343.583 696.499C332.003 698.459 320.563 700.389 308.843 702.379C307.863 713.079 306.913 723.429 305.983 733.609ZM828.283 532.299C815.013 531.139 778.173 531.639 774.373 532.979C783.933 539.759 793.353 546.439 803.003 553.289C811.283 546.409 819.323 539.739 828.283 532.299ZM705.943 354.589C718.183 352.509 729.553 350.579 741.253 348.589C742.243 337.829 743.213 327.379 744.183 316.909C731.473 329.439 719.143 341.579 705.953 354.589H705.943ZM275.413 518.809C275.473 518.499 275.523 518.199 275.583 517.889C266.153 511.209 256.723 504.519 247.423 497.929C238.543 503.789 225.033 515.589 223.453 518.809H275.423H275.413ZM531.633 275.509C531.983 275.649 532.333 275.789 532.683 275.939C539.353 266.559 546.023 257.179 552.613 247.909C547.143 239.489 535.083 225.619 531.633 223.829V275.509ZM502.763 460.139C508.573 474.069 514.223 487.609 519.873 501.159C521.463 491.139 520.833 459.779 519.753 456.479C514.303 457.649 508.883 458.819 502.753 460.139H502.763ZM570.533 473.099C565.373 469.859 560.543 466.829 555.453 463.639C549.773 477.449 544.173 491.039 539.003 503.599C549.103 493.839 559.753 483.529 570.533 473.109V473.099ZM500.283 530.899C500.233 530.639 500.173 530.389 500.123 530.129H455.893C457.203 536.119 458.413 541.689 459.733 547.729C473.273 542.109 486.783 536.499 500.283 530.899ZM511.293 546.979C510.963 546.719 510.633 546.469 510.303 546.209C499.953 556.699 489.603 567.189 479.313 577.619C484.653 581.029 489.483 584.119 494.603 587.389C500.163 573.909 505.723 560.439 511.283 546.979H511.293ZM463.173 495.039C476.803 500.669 490.533 506.349 503.103 511.549C493.413 501.489 483.043 490.739 472.713 480.019C469.603 484.909 466.533 489.739 463.173 495.039ZM594.303 520.929C592.883 514.719 591.613 509.169 590.253 503.269C576.493 508.989 563.043 514.589 549.593 520.179C549.653 520.429 549.713 520.679 549.773 520.929H594.303ZM546.633 539.309C546.403 539.659 546.163 540.009 545.933 540.359C556.343 550.639 566.763 560.929 577.193 571.229C580.613 565.849 583.683 561.039 586.953 555.899C573.533 550.379 560.083 544.839 546.633 539.299V539.309ZM547.293 590.819C545.403 586.269 543.553 581.809 541.703 577.349C539.763 572.669 537.913 567.949 535.863 563.319C533.983 559.079 532.753 554.499 529.673 549.739V594.669C535.633 593.37 541.193 592.149 547.293 590.819ZM505.073 242.409C510.113 249.949 514.823 257.019 519.563 264.069C519.843 264.489 520.323 264.789 520.743 265.169C521.893 261.209 522.143 229.459 520.923 222.839C515.363 229.709 510.193 236.089 505.083 242.409H505.073ZM223.433 529.079C223.293 529.459 223.153 529.839 223.013 530.219C229.443 535.359 235.873 540.499 242.303 545.639C245.353 543.389 247.793 541.529 250.303 539.769C252.823 537.999 255.473 536.429 257.953 534.599C260.243 532.909 263.353 532.139 264.983 529.079H223.433ZM308.923 316.289C308.043 318.769 309.123 331.589 311.493 339.679C320.263 341.339 329.093 343.009 337.373 344.579C327.863 335.129 318.183 325.499 308.923 316.299V316.289ZM808.023 505.429C800.003 510.929 792.653 515.979 784.953 521.259C791.473 522.599 823.493 522.419 827.303 520.989C820.823 515.759 814.513 510.669 808.023 505.429ZM705.933 337.979C715.673 328.159 725.403 318.349 735.043 308.629C727.393 309.459 719.193 310.349 711.013 311.229C709.223 320.659 707.543 329.509 705.933 337.979ZM529.183 785.189C528.003 793.019 528.263 823.609 529.573 827.739C534.923 821.069 540.073 814.639 545.063 808.419C539.633 800.479 534.643 793.169 529.173 785.189H529.183ZM344.323 712.139C339.103 715.539 316.243 738.679 314.473 742.449C322.913 741.499 331.123 740.579 339.103 739.689C340.933 730.049 342.603 721.219 344.323 712.139ZM741.783 735.619C740.853 727.519 741.013 719.169 738.723 711.299C729.603 709.609 720.913 707.989 712.223 706.379C722.263 716.319 732.003 725.939 741.783 735.619ZM527.733 10.1494C523.413 10.2894 519.153 14.8094 519.193 19.1994C519.233 23.3894 523.483 27.3494 527.873 27.2794C532.483 27.2094 536.193 23.1193 536.083 18.2393C535.983 13.4693 532.403 10.0094 527.723 10.1594L527.733 10.1494ZM165.093 873.469C161.023 873.419 156.173 877.619 155.973 881.359C155.733 885.929 159.823 890.219 164.423 890.229C169.593 890.229 173.303 886.759 173.273 881.949C173.243 877.369 169.533 873.529 165.083 873.469H165.093ZM26.8128 522.699C26.7528 518.029 22.8328 514.459 17.8128 514.529C12.9128 514.589 9.69273 517.899 9.79273 522.769C9.89273 527.259 14.0826 531.229 18.7026 531.209C23.0826 531.189 26.8628 527.219 26.8128 522.699ZM522.313 1040.83C526.683 1040.73 530.823 1036.35 530.813 1031.86C530.803 1027.56 526.733 1023.67 522.283 1023.71C517.633 1023.75 514.073 1027.68 514.123 1032.72C514.173 1037.46 517.683 1040.95 522.313 1040.84V1040.83ZM873.063 885.379C872.973 889.559 876.993 894.319 880.823 894.559C885.463 894.849 889.573 890.949 889.633 886.199C889.693 880.849 886.493 877.329 881.563 877.339C876.863 877.339 873.163 880.849 873.063 885.379ZM885.223 177.519C889.463 177.439 893.943 173.299 894.013 169.409C894.093 164.629 890.163 160.689 885.443 160.809C880.253 160.939 876.693 164.459 876.853 169.289C877.013 173.899 880.783 177.609 885.223 177.529V177.519ZM1031.93 536.439C1036.84 536.529 1040.28 533.309 1040.35 528.559C1040.42 524.149 1036.3 519.949 1031.72 519.789C1027.31 519.629 1023.49 523.359 1023.35 527.949C1023.21 532.699 1026.89 536.349 1031.94 536.439H1031.93ZM176.933 165.559C176.983 161.299 173.013 156.609 169.193 156.439C164.553 156.229 160.363 160.219 160.343 164.849C160.313 170.029 163.713 173.659 168.563 173.649C173.323 173.629 176.873 170.199 176.933 165.559ZM548.423 560.289C552.173 568.839 555.503 576.429 559.003 584.399C561.953 582.139 564.433 580.239 566.953 578.309C560.823 572.349 555.003 566.689 548.413 560.289H548.423ZM471.753 566.869C477.603 560.979 483.333 555.209 489.093 549.409C481.613 552.669 473.993 555.999 466.113 559.439C468.413 562.469 470.243 564.879 471.743 566.869H471.753ZM517.663 592.559C517.633 584.129 517.783 576.179 517.273 568.229C513.293 574.529 508.543 587.419 508.383 591.349C511.223 591.719 514.083 592.089 517.663 592.559ZM578.463 484.269C572.753 490.099 567.083 495.879 561.873 501.199C568.633 498.249 576.193 494.949 583.993 491.549C581.823 488.689 579.983 486.269 578.463 484.269ZM501.593 490.559C497.823 481.949 494.523 474.429 491.093 466.599C488.133 468.839 485.633 470.729 483.343 472.459C489.333 478.399 495.083 484.099 501.593 490.559ZM567.933 533.259C567.863 533.549 567.793 533.839 567.723 534.139C575.193 537.079 582.673 540.019 590.703 543.179C591.173 539.579 591.573 536.499 591.993 533.269H567.933V533.259ZM532.673 482.699C532.993 482.799 533.323 482.889 533.643 482.989C536.613 475.389 539.583 467.779 542.743 459.679C538.923 459.259 535.963 458.929 532.673 458.569V482.699ZM482.323 517.709C482.343 517.419 482.363 517.129 482.393 516.829C474.843 513.879 467.303 510.939 459.383 507.849C458.893 511.369 458.473 514.359 458.003 517.709H482.323Z" fill="white"/>
</svg>
